# xmcd
#
# Track frame offsets:
#	150
#	20980
#	38935
#	55798
#	72825
#	88537
#	106105
#	122625
#	145310
#	170023
#	189208
#	207310
#	229657
#	246570
#	266362
#	284143
#	309538
#
# Disc length: 4417 seconds
#
# Revision: 0
# Processed by: cddbd v1.5.2PL0 Copyright (c) Steve Scherf et al.
# Submitted via: dBpowerAMP V4.0
#
DISCID=fc113f11
DTITLE=Varios - 1000 % DISCOTHEQUE
DYEAR=1997
DGENRE=Dance
TTITLE0=The power of love-Corona
TTITLE1=Baby Boy-Whigfield
TTITLE2=Another Holiday-Playahitty
TTITLE3=Uh la la la- Alexia
TTITLE4=Grooverbird PT.& 11-Natural Born Grooves
TTITLE5=Remember Me-The Blue Boy
TTITLE6=Mr. Dj-Dr Alban
TTITLE7=Encore Une Fois-Sash
TTITLE8=Shadows of the Night- Dj Bobo
TTITLE9=My Side of Town-Lutricia Mc Neal
TTITLE10=One Night Stand-Ciaobella
TTITLE11=Ain t Nobody- The Course
TTITLE12=Sex on the beach-T spoon
TTITLE13=Samba de Janeiro-Carrillo
TTITLE14=Beachball-Beachball
TTITLE15=Rock the Bells-Kadoc
TTITLE16=Rock the Disco-Discomaniax
EXTD=
EXTT0=
EXTT1=
EXTT2=
EXTT3=
EXTT4=
EXTT5=
EXTT6=
EXTT7=
EXTT8=
EXTT9=
EXTT10=
EXTT11=
EXTT12=
EXTT13=
EXTT14=
EXTT15=
EXTT16=
PLAYORDER=
